<svg width="106" height="106" viewBox="0 0 106 106" fill="none" xmlns="http://www.w3.org/2000/svg">
<path fill-rule="evenodd" clip-rule="evenodd" d="M53 106C82.2715 106 106 82.2711 106 53C106 23.7289 82.2715 0 53 0C23.7285 0 0 23.7289 0 53C0 82.2711 23.7285 106 53 106ZM82.5898 52.8605C82.6543 53.0657 82.6875 53.2811 82.6875 53.5C82.6875 54.0719 82.4609 54.6203 82.0566 55.0247C81.6523 55.4291 81.1035 55.6562 80.5312 55.6562H29.6738L43.2461 69.2234C43.4453 69.4238 43.6055 69.6619 43.7129 69.9238C43.8223 70.1857 43.877 70.4665 43.877 70.75C43.877 71.0335 43.8223 71.3143 43.7129 71.5762C43.6055 71.8381 43.4453 72.0762 43.2461 72.2766C43.0449 72.4771 42.8066 72.6361 42.5449 72.7446C42.2832 72.8531 42.002 72.909 41.7188 72.909C41.4355 72.909 41.1543 72.8531 40.8926 72.7446C40.6309 72.6361 40.3926 72.4771 40.1914 72.2766L22.9414 55.0266C22.7422 54.8264 22.582 54.5884 22.4727 54.3264C22.3652 54.0645 22.3086 53.7836 22.3086 53.5C22.3086 53.2164 22.3652 52.9355 22.4727 52.6736C22.5234 52.5536 22.584 52.4387 22.6543 52.3301C22.7383 52.2015 22.834 52.0819 22.9414 51.9734L40.1914 34.7234C40.3926 34.5229 40.6309 34.3639 40.8926 34.2554C41.1543 34.1469 41.4355 34.091 41.7188 34.091C42.002 34.091 42.2832 34.1469 42.5449 34.2554C42.8066 34.3639 43.0449 34.5229 43.2461 34.7234C43.4453 34.9238 43.6055 35.1619 43.7129 35.4238C43.8223 35.6857 43.877 35.9665 43.877 36.25C43.877 36.5335 43.8223 36.8143 43.7129 37.0762C43.6055 37.3381 43.4453 37.5762 43.2461 37.7766L29.6738 51.3438H80.5312C81.1035 51.3438 81.6523 51.5709 82.0566 51.9753C82.3066 52.2249 82.4883 52.5295 82.5898 52.8605Z" fill="white"/>
</svg>
