<svg width="106" height="106" viewBox="0 0 106 106" fill="none" xmlns="http://www.w3.org/2000/svg">
<path fill-rule="evenodd" clip-rule="evenodd" d="M53 106C23.7289 106 0 82.2711 0 53C0 23.7289 23.7289 0 53 0C82.2711 0 106 23.7289 106 53C106 82.2711 82.2711 106 53 106ZM23.9441 51.9753C23.5397 52.3797 23.3125 52.9281 23.3125 53.5C23.3125 54.0719 23.5397 54.6203 23.9441 55.0247C24.3484 55.4291 24.8969 55.6562 25.4688 55.6562H76.3261L62.7546 69.2234C62.5541 69.4239 62.3951 69.6619 62.2866 69.9238C62.1781 70.1857 62.1223 70.4665 62.1223 70.75C62.1223 71.0335 62.1781 71.3143 62.2866 71.5762C62.3951 71.8381 62.5541 72.0761 62.7546 72.2766C62.9551 72.4771 63.1931 72.6361 63.455 72.7446C63.717 72.8531 63.9977 72.909 64.2812 72.909C64.5648 72.909 64.8455 72.8531 65.1075 72.7446C65.3694 72.6361 65.6074 72.4771 65.8079 72.2766L83.0579 55.0266C83.2587 54.8263 83.418 54.5884 83.5267 54.3264C83.6354 54.0645 83.6914 53.7836 83.6914 53.5C83.6914 53.2164 83.6354 52.9355 83.5267 52.6736C83.418 52.4116 83.2587 52.1737 83.0579 51.9734L65.8079 34.7234C65.6074 34.5229 65.3694 34.3639 65.1075 34.2554C64.8455 34.1469 64.5648 34.091 64.2812 34.091C63.9977 34.091 63.717 34.1469 63.455 34.2554C63.1931 34.3639 62.9551 34.5229 62.7546 34.7234C62.5541 34.9239 62.3951 35.1619 62.2866 35.4238C62.1781 35.6857 62.1223 35.9665 62.1223 36.25C62.1223 36.5335 62.1781 36.8143 62.2866 37.0762C62.3951 37.3381 62.5541 37.5761 62.7546 37.7766L76.3261 51.3438H25.4688C24.8969 51.3438 24.3484 51.5709 23.9441 51.9753Z" fill="white"/>
</svg>
