<?xml version="1.0" encoding="UTF-8" standalone="no"?>
<!DOCTYPE svg PUBLIC "-//W3C//DTD SVG 1.1//EN" "http://www.w3.org/Graphics/SVG/1.1/DTD/svg11.dtd">
<svg width="100%" height="100%" viewBox="0 0 1772 1772" version="1.1" xmlns="http://www.w3.org/2000/svg" xmlns:xlink="http://www.w3.org/1999/xlink" xml:space="preserve" xmlns:serif="http://www.serif.com/" style="fill-rule:evenodd;clip-rule:evenodd;stroke-linecap:round;stroke-linejoin:round;stroke-miterlimit:1.5;">
    <g transform="matrix(1,0,0,1,-206.61,-31.9724)">
        <g>
            <g transform="matrix(0.914296,0,0,1,269.211,-120.528)">
                <path d="M1624,1035.75L1624,1041.25C1624,1042.77 1622.65,1044 1620.99,1044L180.174,1044C178.514,1044 177.166,1042.77 177.166,1041.25L177.166,1035.75C177.166,1034.23 178.514,1033 180.174,1033L1620.99,1033C1622.65,1033 1624,1034.23 1624,1035.75Z" style="stroke:black;stroke-width:104.37px;"/>
            </g>
            <g transform="matrix(0.785739,0,0,0.785739,384.987,564.982)">
                <path d="M1624,1035.75L1624,1041.25C1624,1042.77 1622.77,1044 1621.25,1044L179.916,1044C178.398,1044 177.166,1042.77 177.166,1041.25L177.166,1035.75C177.166,1034.23 178.398,1033 179.916,1033L1621.25,1033C1622.77,1033 1624,1034.23 1624,1035.75Z" style="stroke:black;stroke-width:127.27px;"/>
            </g>
            <g transform="matrix(0.785739,0,0,0.785739,384.987,-361.018)">
                <path d="M1624,1035.75L1624,1041.25C1624,1042.77 1622.77,1044 1621.25,1044L179.916,1044C178.398,1044 177.166,1042.77 177.166,1041.25L177.166,1035.75C177.166,1034.23 178.398,1033 179.916,1033L1621.25,1033C1622.77,1033 1624,1034.23 1624,1035.75Z" style="stroke:black;stroke-width:127.27px;"/>
            </g>
        </g>
    </g>
</svg>
