<?xml version="1.0" encoding="UTF-8" standalone="no"?>
<!DOCTYPE svg PUBLIC "-//W3C//DTD SVG 1.1//EN" "http://www.w3.org/Graphics/SVG/1.1/DTD/svg11.dtd">
<svg width="100%" height="100%" viewBox="0 0 120 115" version="1.1" xmlns="http://www.w3.org/2000/svg" xmlns:xlink="http://www.w3.org/1999/xlink" xml:space="preserve" xmlns:serif="http://www.serif.com/" style="fill-rule:evenodd;clip-rule:evenodd;stroke-linejoin:round;stroke-miterlimit:2;">
    <g transform="matrix(0.0171586,0,0,0.0171586,-21.3448,-23.2439)">
        <path d="M3757.43,3471.58L4203.1,1354.65L8204.85,1354.65L8065.25,2001.48L4726.25,2001.48L4424.1,3471.58L3757.43,3471.58ZM7225.3,7385.12L7096.88,8035.11L1243.97,8035.11L2682.25,1354.65L3326.83,1354.65L2030.46,7385.12L7225.3,7385.12ZM3102.86,6614.49L3594.95,4246.86L7494.56,4246.86L7354.25,4884.48L4111.25,4884.48L3757.43,6614.49L3102.86,6614.49Z"/>
        <path d="M3757.43,3471.58L4203.1,1354.65L8204.85,1354.65L8065.25,2001.48L4726.25,2001.48L4424.1,3471.58L3757.43,3471.58ZM7225.3,7385.12L7096.88,8035.11L1243.97,8035.11L2682.25,1354.65L3326.83,1354.65L2030.46,7385.12L7225.3,7385.12ZM3102.86,6614.49L3594.95,4246.86L7494.56,4246.86L7354.25,4884.48L4111.25,4884.48L3757.43,6614.49L3102.86,6614.49Z" style="fill:none;"/>
        <path d="M3757.43,3471.58L4203.1,1354.65L8204.85,1354.65L8065.25,2001.48L4726.25,2001.48L4424.1,3471.58L3757.43,3471.58ZM7225.3,7385.12L7096.88,8035.11L1243.97,8035.11L2682.25,1354.65L3326.83,1354.65L2030.46,7385.12L7225.3,7385.12ZM3102.86,6614.49L3594.95,4246.86L7494.56,4246.86L7354.25,4884.48L4111.25,4884.48L3757.43,6614.49L3102.86,6614.49Z" style="fill:none;"/>
    </g>
</svg>
