<svg width="1208" height="595" viewBox="0 0 1208 595" fill="none" xmlns="http://www.w3.org/2000/svg">
<path d="M139.807 505H138.807V506H139.807V505ZM139.807 432.273V431.273H138.807V432.273H139.807ZM148.614 432.273H149.614V431.273H148.614V432.273ZM148.614 497.188H147.614V498.188H148.614V497.188ZM182.42 497.188H183.42V496.188H182.42V497.188ZM182.42 505V506H183.42V505H182.42ZM140.807 505V432.273H138.807V505H140.807ZM139.807 433.273H148.614V431.273H139.807V433.273ZM147.614 432.273V497.188H149.614V432.273H147.614ZM148.614 498.188H182.42V496.188H148.614V498.188ZM181.42 497.188V505H183.42V497.188H181.42ZM182.42 504H139.807V506H182.42V504ZM250.434 488.523L249.538 488.079L249.538 488.079L250.434 488.523ZM239.034 501.449L239.566 502.296L239.566 502.296L239.034 501.449ZM205.938 501.449L205.406 502.296L205.406 502.296L205.938 501.449ZM194.539 488.523L195.435 488.079L195.435 488.079L194.539 488.523ZM239.034 435.824L239.566 434.977L239.566 434.977L239.034 435.824ZM250.434 448.75L249.538 449.194L249.538 449.194L250.434 448.75ZM242.905 452.692L242.004 453.125L242.006 453.129L242.905 452.692ZM234.418 442.855L233.887 443.702L233.889 443.704L234.418 442.855ZM210.519 442.855L209.99 442.006L209.988 442.008L210.519 442.855ZM202.032 452.692L201.132 452.254L201.13 452.258L202.032 452.692ZM202.032 484.581L201.13 485.014L201.132 485.018L202.032 484.581ZM210.519 494.418L209.988 495.265L209.99 495.267L210.519 494.418ZM234.418 494.418L233.889 493.569L233.887 493.57L234.418 494.418ZM242.905 484.581L242.006 484.144L242.004 484.148L242.905 484.581ZM253.588 468.636C253.588 476.188 252.225 482.658 249.538 488.079L251.33 488.967C254.182 483.214 255.588 476.426 255.588 468.636H253.588ZM249.538 488.079C246.842 493.516 243.162 497.679 238.503 500.602L239.566 502.296C244.566 499.158 248.486 494.703 251.33 488.967L249.538 488.079ZM238.503 500.602C233.847 503.523 228.518 504.994 222.486 504.994V506.994C228.86 506.994 234.563 505.435 239.566 502.296L238.503 500.602ZM222.486 504.994C216.454 504.994 211.126 503.523 206.469 500.602L205.406 502.296C210.409 505.435 216.113 506.994 222.486 506.994V504.994ZM206.469 500.602C201.811 497.679 198.131 493.516 195.435 488.079L193.643 488.967C196.487 494.703 200.406 499.158 205.406 502.296L206.469 500.602ZM195.435 488.079C192.747 482.658 191.384 476.188 191.384 468.636H189.384C189.384 476.426 190.79 483.214 193.643 488.967L195.435 488.079ZM191.384 468.636C191.384 461.085 192.747 454.615 195.435 449.194L193.643 448.306C190.79 454.059 189.384 460.847 189.384 468.636H191.384ZM195.435 449.194C198.131 443.756 201.811 439.594 206.469 436.671L205.406 434.977C200.406 438.114 196.487 442.569 193.643 448.306L195.435 449.194ZM206.469 436.671C211.126 433.749 216.454 432.278 222.486 432.278V430.278C216.113 430.278 210.409 431.838 205.406 434.977L206.469 436.671ZM222.486 432.278C228.518 432.278 233.847 433.749 238.503 436.671L239.566 434.977C234.563 431.838 228.86 430.278 222.486 430.278V432.278ZM238.503 436.671C243.162 439.594 246.842 443.756 249.538 449.194L251.33 448.306C248.486 442.569 244.566 438.114 239.566 434.977L238.503 436.671ZM249.538 449.194C252.225 454.615 253.588 461.085 253.588 468.636H255.588C255.588 460.847 254.182 454.059 251.33 448.306L249.538 449.194ZM247.066 468.636C247.066 462.232 245.995 456.758 243.804 452.254L242.006 453.129C244.03 457.29 245.066 462.446 245.066 468.636H247.066ZM243.806 452.258C241.653 447.78 238.704 444.346 234.946 442.006L233.889 443.704C237.281 445.815 239.991 448.939 242.004 453.125L243.806 452.258ZM234.949 442.008C231.23 439.677 227.067 438.517 222.486 438.517V440.517C226.712 440.517 230.503 441.582 233.887 443.702L234.949 442.008ZM222.486 438.517C217.905 438.517 213.731 439.677 209.99 442.006L211.047 443.704C214.456 441.582 218.261 440.517 222.486 440.517V438.517ZM209.988 442.008C206.255 444.347 203.309 447.779 201.132 452.254L202.931 453.129C204.968 448.939 207.68 445.814 211.05 443.702L209.988 442.008ZM201.13 452.258C198.965 456.761 197.907 462.234 197.907 468.636H199.907C199.907 462.444 200.931 457.287 202.933 453.125L201.13 452.258ZM197.907 468.636C197.907 475.039 198.965 480.512 201.13 485.014L202.933 484.148C200.931 479.986 199.907 474.828 199.907 468.636H197.907ZM201.132 485.018C203.309 489.493 206.255 492.926 209.988 495.265L211.05 493.57C207.68 491.459 204.968 488.333 202.931 484.144L201.132 485.018ZM209.99 495.267C213.731 497.595 217.905 498.756 222.486 498.756V496.756C218.261 496.756 214.456 495.691 211.047 493.569L209.99 495.267ZM222.486 498.756C227.067 498.756 231.23 497.595 234.949 495.265L233.887 493.57C230.503 495.691 226.712 496.756 222.486 496.756V498.756ZM234.946 495.267C238.704 492.927 241.653 489.493 243.806 485.014L242.004 484.148C239.991 488.334 237.281 491.457 233.889 493.569L234.946 495.267ZM243.804 485.018C245.995 480.514 247.066 475.041 247.066 468.636H245.066C245.066 474.827 244.03 479.983 242.006 484.144L243.804 485.018ZM269.397 505H268.397V506H269.397V505ZM269.397 432.273V431.273H268.397V432.273H269.397ZM278.203 432.273H279.203V431.273H278.203V432.273ZM278.203 468.352H277.203V469.352H278.203V468.352ZM279.056 468.352V469.352H279.499L279.797 469.023L279.056 468.352ZM311.726 432.273V431.273H311.283L310.985 431.602L311.726 432.273ZM323.232 432.273L323.964 432.954L325.529 431.273H323.232V432.273ZM292.692 465.085L291.96 464.404L291.385 465.022L291.898 465.693L292.692 465.085ZM323.232 505V506H325.256L324.026 504.392L323.232 505ZM312.578 505L311.778 505.599L312.078 506H312.578V505ZM287.294 471.193L288.095 470.594L287.361 469.613L286.547 470.529L287.294 471.193ZM278.203 481.42L277.456 480.756L277.203 481.04V481.42H278.203ZM278.203 505V506H279.203V505H278.203ZM270.397 505V432.273H268.397V505H270.397ZM269.397 433.273H278.203V431.273H269.397V433.273ZM277.203 432.273V468.352H279.203V432.273H277.203ZM278.203 469.352H279.056V467.352H278.203V469.352ZM279.797 469.023L312.467 432.944L310.985 431.602L278.314 467.681L279.797 469.023ZM311.726 433.273H323.232V431.273H311.726V433.273ZM322.5 431.591L291.96 464.404L293.424 465.767L323.964 432.954L322.5 431.591ZM291.898 465.693L322.438 505.608L324.026 504.392L293.486 464.478L291.898 465.693ZM323.232 504H312.578V506H323.232V504ZM313.379 504.401L288.095 470.594L286.494 471.792L311.778 505.599L313.379 504.401ZM286.547 470.529L277.456 480.756L278.951 482.085L288.042 471.858L286.547 470.529ZM277.203 481.42V505H279.203V481.42H277.203ZM278.203 504H269.397V506H278.203V504ZM334.631 505H333.631V506H334.631V505ZM334.631 432.273V431.273H333.631V432.273H334.631ZM378.523 432.273H379.523V431.273H378.523V432.273ZM378.523 440.085V441.085H379.523V440.085H378.523ZM343.438 440.085V439.085H342.438V440.085H343.438ZM343.438 464.659H342.438V465.659H343.438V464.659ZM376.25 464.659H377.25V463.659H376.25V464.659ZM376.25 472.472V473.472H377.25V472.472H376.25ZM343.438 472.472V471.472H342.438V472.472H343.438ZM343.438 497.188H342.438V498.188H343.438V497.188ZM379.091 497.188H380.091V496.188H379.091V497.188ZM379.091 505V506H380.091V505H379.091ZM335.631 505V432.273H333.631V505H335.631ZM334.631 433.273H378.523V431.273H334.631V433.273ZM377.523 432.273V440.085H379.523V432.273H377.523ZM378.523 439.085H343.438V441.085H378.523V439.085ZM342.438 440.085V464.659H344.438V440.085H342.438ZM343.438 465.659H376.25V463.659H343.438V465.659ZM375.25 464.659V472.472H377.25V464.659H375.25ZM376.25 471.472H343.438V473.472H376.25V471.472ZM342.438 472.472V497.188H344.438V472.472H342.438ZM343.438 498.188H379.091V496.188H343.438V498.188ZM378.091 497.188V505H380.091V497.188H378.091ZM379.091 504H334.631V506H379.091V504Z" fill="white"/>
<path d="M97 513.193L97 514.193L98 514.193L98 513.193L97 513.193ZM24.2727 513.193L23.2727 513.193L23.2727 514.193L24.2727 514.193L24.2727 513.193ZM24.2727 469.301L24.2727 468.301L23.2727 468.301L23.2727 469.301L24.2727 469.301ZM32.0852 469.301L33.0852 469.301L33.0852 468.301L32.0852 468.301L32.0852 469.301ZM32.0852 504.386L31.0852 504.386L31.0852 505.386L32.0852 505.386L32.0852 504.386ZM56.6591 504.386L56.6591 505.386L57.6591 505.386L57.6591 504.386L56.6591 504.386ZM56.6591 471.574L56.6591 470.574L55.6591 470.574L55.6591 471.574L56.6591 471.574ZM64.4716 471.574L65.4716 471.574L65.4716 470.574L64.4716 470.574L64.4716 471.574ZM64.4716 504.386L63.4716 504.386L63.4716 505.386L64.4716 505.386L64.4716 504.386ZM89.1875 504.386L89.1875 505.386L90.1875 505.386L90.1875 504.386L89.1875 504.386ZM89.1875 468.733L89.1875 467.733L88.1875 467.733L88.1875 468.733L89.1875 468.733ZM97 468.733L98 468.733L98 467.733L97 467.733L97 468.733ZM97 512.193L24.2727 512.193L24.2727 514.193L97 514.193L97 512.193ZM25.2727 513.193L25.2727 469.301L23.2727 469.301L23.2727 513.193L25.2727 513.193ZM24.2727 470.301L32.0852 470.301L32.0852 468.301L24.2727 468.301L24.2727 470.301ZM31.0852 469.301L31.0852 504.386L33.0852 504.386L33.0852 469.301L31.0852 469.301ZM32.0852 505.386L56.6591 505.386L56.6591 503.386L32.0852 503.386L32.0852 505.386ZM57.6591 504.386L57.6591 471.574L55.6591 471.574L55.6591 504.386L57.6591 504.386ZM56.6591 472.574L64.4716 472.574L64.4716 470.574L56.6591 470.574L56.6591 472.574ZM63.4716 471.574L63.4716 504.386L65.4716 504.386L65.4716 471.574L63.4716 471.574ZM64.4716 505.386L89.1875 505.386L89.1875 503.386L64.4716 503.386L64.4716 505.386ZM90.1875 504.386L90.1875 468.733L88.1875 468.733L88.1875 504.386L90.1875 504.386ZM89.1875 469.733L97 469.733L97 467.733L89.1875 467.733L89.1875 469.733ZM96 468.733L96 513.193L98 513.193L98 468.733L96 468.733ZM97 453.428L97 454.428L98 454.428L98 453.428L97 453.428ZM24.2727 453.428L23.2727 453.428L23.2727 454.428L24.2727 454.428L24.2727 453.428ZM28.6406 411.879L29.5056 412.381L29.5074 412.378L28.6406 411.879ZM41.1051 400.338L41.5476 401.235L41.5492 401.234L41.1051 400.338ZM80.0611 400.374L80.5052 399.478L80.5036 399.477L80.0611 400.374ZM92.6321 412.163L93.503 411.672L93.5013 411.669L92.6321 412.163ZM89.1875 444.621L89.1875 445.621L90.1875 445.621L90.1875 444.621L89.1875 444.621ZM85.7074 416.602L84.8449 417.108L85.7074 416.602ZM45.331 407.724L45.7413 408.636L45.7432 408.635L45.331 407.724ZM35.5298 416.318L36.3864 416.834L36.3887 416.83L35.5298 416.318ZM32.0852 444.621L31.0852 444.621L31.0852 445.621L32.0852 445.621L32.0852 444.621ZM96 430.984L96 453.428L98 453.428L98 430.984L96 430.984ZM97 452.428L24.2727 452.428L24.2727 454.428L97 454.428L97 452.428ZM25.2727 453.428L25.2727 429.99L23.2727 429.99L23.2727 453.428L25.2727 453.428ZM25.2727 429.99C25.2727 423.073 26.6994 417.218 29.5056 412.381L27.7757 411.377C24.758 416.579 23.2727 422.797 23.2727 429.99L25.2727 429.99ZM29.5074 412.378C32.2923 407.539 36.2957 403.826 41.5476 401.235L40.6626 399.441C35.0717 402.2 30.7655 406.182 27.7739 411.38L29.5074 412.378ZM41.5492 401.234C46.7788 398.642 53.0824 397.325 60.4943 397.325L60.4943 395.325C52.8494 395.325 46.2269 396.684 40.661 399.442L41.5492 401.234ZM60.4943 397.325C67.9529 397.325 74.3167 398.654 79.6185 401.27L80.5036 399.477C74.868 396.696 68.1872 395.325 60.4943 395.325L60.4943 397.325ZM79.617 401.27C84.888 403.882 88.9282 407.674 91.7629 412.658L93.5013 411.669C90.4647 406.33 86.1243 402.263 80.5052 399.478L79.617 401.27ZM91.7612 412.655C94.57 417.633 96 423.728 96 430.984L98 430.984C98 423.468 96.518 417.016 93.503 411.672L91.7612 412.655ZM90.1875 444.621L90.1875 431.553L88.1875 431.553L88.1875 444.621L90.1875 444.621ZM90.1875 431.553C90.1875 425.415 89.0039 420.244 86.5698 416.096L84.8449 417.108C87.0511 420.868 88.1875 425.663 88.1875 431.553L90.1875 431.553ZM86.5698 416.096C84.1423 411.959 80.6803 408.873 76.2124 406.849L75.387 408.671C79.4892 410.529 82.6323 413.338 84.8449 417.108L86.5698 416.096ZM76.2124 406.849C71.7688 404.836 66.5196 403.848 60.4943 403.848L60.4943 405.848C66.3061 405.848 71.2606 406.801 75.387 408.671L76.2124 406.849ZM60.4943 403.848C54.517 403.848 49.3152 404.824 44.9187 406.813L45.7432 408.635C49.8221 406.79 54.7292 405.848 60.4943 405.848L60.4943 403.848ZM44.9206 406.813C40.4828 408.81 37.0544 411.809 34.6709 415.806L36.3887 416.83C38.5507 413.204 41.6564 410.475 45.7413 408.636L44.9206 406.813ZM34.6733 415.802C32.2604 419.807 31.0852 424.744 31.0852 430.558L33.0852 430.558C33.0852 425.009 34.2065 420.452 36.3864 416.834L34.6733 415.802ZM31.0852 430.558L31.0852 444.621L33.0852 444.621L33.0852 430.558L31.0852 430.558ZM32.0852 445.621L89.1875 445.621L89.1875 443.621L32.0852 443.621L32.0852 445.621ZM24.2727 381.553L23.2727 381.553L23.2727 382.553L24.2727 382.553L24.2727 381.553ZM24.2727 371.041L23.8938 370.116L23.2727 370.37L23.2727 371.041L24.2727 371.041ZM84.642 346.325L85.0209 347.251L85.642 346.996L85.642 346.325L84.642 346.325ZM84.642 345.473L85.642 345.473L85.642 344.802L85.0209 344.548L84.642 345.473ZM24.2727 320.757L23.2727 320.757L23.2727 321.428L23.8938 321.683L24.2727 320.757ZM24.2727 310.246L24.2727 309.246L23.2727 309.246L23.2727 310.246L24.2727 310.246ZM97 310.246L98 310.246L98 309.246L97 309.246L97 310.246ZM97 318.484L97 319.484L98 319.484L98 318.484L97 318.484ZM41.7443 318.484L41.7443 317.484L40.7443 317.484L40.7443 318.484L41.7443 318.484ZM41.7443 319.195L40.7443 319.195L40.7443 319.865L41.3639 320.119L41.7443 319.195ZM97 341.922L98 341.922L98 341.252L97.3804 340.997L97 341.922ZM97 349.876L97.3804 350.801L98 350.546L98 349.876L97 349.876ZM41.7443 372.604L41.3639 371.679L40.7443 371.934L40.7443 372.604L41.7443 372.604ZM41.7443 373.314L40.7443 373.314L40.7443 374.314L41.7443 374.314L41.7443 373.314ZM97 373.314L98 373.314L98 372.314L97 372.314L97 373.314ZM97 381.553L97 382.553L98 382.553L98 381.553L97 381.553ZM25.2727 381.553L25.2727 371.041L23.2727 371.041L23.2727 381.553L25.2727 381.553ZM24.6516 371.967L85.0209 347.251L84.2632 345.4L23.8938 370.116L24.6516 371.967ZM85.642 346.325L85.642 345.473L83.642 345.473L83.642 346.325L85.642 346.325ZM85.0209 344.548L24.6516 319.832L23.8938 321.683L84.2632 346.398L85.0209 344.548ZM25.2727 320.757L25.2727 310.246L23.2727 310.246L23.2727 320.757L25.2727 320.757ZM24.2727 311.246L97 311.246L97 309.246L24.2727 309.246L24.2727 311.246ZM96 310.246L96 318.484L98 318.484L98 310.246L96 310.246ZM97 317.484L41.7443 317.484L41.7443 319.484L97 319.484L97 317.484ZM40.7443 318.484L40.7443 319.195L42.7443 319.195L42.7443 318.484L40.7443 318.484ZM41.3639 320.119L96.6196 342.847L97.3804 340.997L42.1247 318.27L41.3639 320.119ZM96 341.922L96 349.876L98 349.876L98 341.922L96 341.922ZM96.6196 348.952L41.3639 371.679L42.1247 373.529L97.3804 350.801L96.6196 348.952ZM40.7443 372.604L40.7443 373.314L42.7443 373.314L42.7443 372.604L40.7443 372.604ZM41.7443 374.314L97 374.314L97 372.314L41.7443 372.314L41.7443 374.314ZM96 373.314L96 381.553L98 381.553L98 373.314L96 373.314ZM97 380.553L24.2727 380.553L24.2727 382.553L97 382.553L97 380.553ZM24.2727 244.86L23.2727 244.86L23.2727 245.86L24.2727 245.86L24.2727 244.86ZM24.2727 236.054L24.2727 235.054L23.2727 235.054L23.2727 236.054L24.2727 236.054ZM85.7429 239.569L85.2284 240.427L85.2299 240.428L85.7429 239.569ZM94.9403 249.406L95.8257 248.941L95.8236 248.937L94.9403 249.406ZM94.9403 279.235L95.8236 279.704L95.8257 279.7L94.9403 279.235ZM85.7429 289.108L86.2536 289.967L86.2597 289.964L85.7429 289.108ZM24.2727 292.588L23.2727 292.588L23.2727 293.588L24.2727 293.588L24.2727 292.588ZM24.2727 283.781L24.2727 282.781L23.2727 282.781L23.2727 283.781L24.2727 283.781ZM81.1974 281.437L81.6888 282.308L81.692 282.306L81.1974 281.437ZM87.696 274.761L88.5726 275.242L88.5772 275.234L87.696 274.761ZM87.696 253.88L88.5772 253.407L88.5742 253.402L87.696 253.88ZM81.1974 247.204L80.7061 248.075L80.7086 248.077L81.1974 247.204ZM25.2727 244.86L25.2727 236.054L23.2727 236.054L23.2727 244.86L25.2727 244.86ZM24.2727 237.054L72.4261 237.054L72.4261 235.054L24.2727 235.054L24.2727 237.054ZM72.4261 237.054C77.2336 237.054 81.4916 238.185 85.2284 240.427L86.2574 238.712C82.1817 236.266 77.5619 235.054 72.4261 235.054L72.4261 237.054ZM85.2299 240.428C88.9462 242.648 91.8881 245.788 94.057 249.875L95.8236 248.937C93.4944 244.548 90.3047 241.13 86.2558 238.711L85.2299 240.428ZM94.055 249.871C96.1919 253.94 97.2784 258.746 97.2784 264.321L99.2784 264.321C99.2784 258.484 98.1395 253.347 95.8257 248.941L94.055 249.871ZM97.2784 264.321C97.2784 269.895 96.1919 274.701 94.055 278.771L95.8257 279.7C98.1395 275.294 99.2784 270.157 99.2784 264.321L97.2784 264.321ZM94.057 278.767C91.8877 282.854 88.9446 286.007 85.2261 288.251L86.2597 289.964C90.3063 287.521 93.4948 284.092 95.8236 279.704L94.057 278.767ZM85.2322 288.248C81.4949 290.468 77.2355 291.588 72.4261 291.588L72.4261 293.588C77.56 293.588 82.1784 292.388 86.2535 289.967L85.2322 288.248ZM72.4261 291.588L24.2727 291.588L24.2727 293.588L72.4261 293.588L72.4261 291.588ZM25.2727 292.588L25.2727 283.781L23.2727 283.781L23.2727 292.588L25.2727 292.588ZM24.2727 284.781L71.7159 284.781L71.7159 282.781L24.2727 282.781L24.2727 284.781ZM71.7159 284.781C75.4187 284.781 78.752 283.965 81.6888 282.308L80.7061 280.566C78.1031 282.035 75.1154 282.781 71.7159 282.781L71.7159 284.781ZM81.692 282.306C84.606 280.648 86.9013 278.285 88.5725 275.242L86.8195 274.28C85.3183 277.013 83.2813 279.101 80.7029 280.568L81.692 282.306ZM88.5772 275.234C90.2334 272.147 91.0398 268.497 91.0398 264.321L89.0398 264.321C89.0398 268.241 88.2837 271.551 86.8149 274.288L88.5772 275.234ZM91.0398 264.321C91.0398 260.144 90.2334 256.494 88.5772 253.408L86.8149 254.353C88.2837 257.09 89.0398 260.401 89.0398 264.321L91.0398 264.321ZM88.5742 253.402C86.903 250.334 84.6057 247.968 81.6863 246.332L80.7086 248.077C83.2816 249.518 85.3167 251.603 86.8178 254.359L88.5742 253.402ZM81.6888 246.333C78.752 244.677 75.4187 243.86 71.7159 243.86L71.7159 245.86C75.1154 245.86 78.1031 246.607 80.7061 248.075L81.6888 246.333ZM71.7159 243.86L24.2727 243.86L24.2727 245.86L71.7159 245.86L71.7159 243.86ZM24.2727 160.796L24.2727 159.796L23.2727 159.796L23.2727 160.796L24.2727 160.796ZM97 160.796L98 160.796L98 159.796L97 159.796L97 160.796ZM97 169.319L97.5702 170.14L98 169.842L98 169.319L97 169.319ZM39.8977 208.95L39.3275 208.128L38.8977 208.426L38.8977 208.95L39.8977 208.95ZM39.8977 209.66L38.8977 209.66L38.8977 210.66L39.8977 210.66L39.8977 209.66ZM97 209.66L98 209.66L98 208.66L97 208.66L97 209.66ZM97 218.467L97 219.467L98 219.467L98 218.467L97 218.467ZM24.2727 218.467L23.2727 218.467L23.2727 219.467L24.2727 219.467L24.2727 218.467ZM24.2727 209.944L23.7021 209.123L23.2727 209.421L23.2727 209.944L24.2727 209.944ZM81.517 170.171L82.0876 170.992L82.517 170.694L82.517 170.171L81.517 170.171ZM81.517 169.461L82.517 169.461L82.517 168.461L81.517 168.461L81.517 169.461ZM24.2727 169.461L23.2727 169.461L23.2727 170.461L24.2727 170.461L24.2727 169.461ZM24.2727 161.796L97 161.796L97 159.796L24.2727 159.796L24.2727 161.796ZM96 160.796L96 169.319L98 169.319L98 160.796L96 160.796ZM96.4298 168.497L39.3275 208.128L40.4679 209.771L97.5702 170.14L96.4298 168.497ZM38.8977 208.95L38.8977 209.66L40.8977 209.66L40.8977 208.95L38.8977 208.95ZM39.8977 210.66L97 210.66L97 208.66L39.8977 208.66L39.8977 210.66ZM96 209.66L96 218.467L98 218.467L98 209.66L96 209.66ZM97 217.467L24.2727 217.467L24.2727 219.467L97 219.467L97 217.467ZM25.2727 218.467L25.2727 209.944L23.2727 209.944L23.2727 218.467L25.2727 218.467ZM24.8433 210.765L82.0876 170.992L80.9464 169.35L23.7021 209.123L24.8433 210.765ZM82.517 170.171L82.517 169.461L80.517 169.461L80.517 170.171L82.517 170.171ZM81.517 168.461L24.2727 168.461L24.2727 170.461L81.517 170.461L81.517 168.461ZM25.2727 169.461L25.2727 160.796L23.2727 160.796L23.2727 169.461L25.2727 169.461ZM97 143.174L97 144.174L98 144.174L98 143.174L97 143.174ZM24.2727 143.174L23.2727 143.174L23.2727 144.174L24.2727 144.174L24.2727 143.174ZM28.6406 101.625L29.5056 102.127L29.5073 102.124L28.6406 101.625ZM41.1051 90.0842L41.5476 90.9809L41.5492 90.9802L41.1051 90.0842ZM80.0611 90.1197L80.5052 89.2237L80.5036 89.2229L80.0611 90.1197ZM92.6321 101.909L93.503 101.418L93.5013 101.415L92.6321 101.909ZM89.1875 134.367L89.1875 135.367L90.1875 135.367L90.1875 134.367L89.1875 134.367ZM85.7074 106.348L84.8449 106.854L85.7074 106.348ZM45.3309 97.4705L45.7413 98.3824L45.7432 98.3816L45.3309 97.4705ZM35.5298 106.064L36.3864 106.58L36.3887 106.576L35.5298 106.064ZM32.0852 134.367L31.0852 134.367L31.0852 135.367L32.0852 135.367L32.0852 134.367ZM96 120.73L96 143.174L98 143.174L98 120.73L96 120.73ZM97 142.174L24.2727 142.174L24.2727 144.174L97 144.174L97 142.174ZM25.2727 143.174L25.2727 119.736L23.2727 119.736L23.2727 143.174L25.2727 143.174ZM25.2727 119.736C25.2727 112.82 26.6994 106.964 29.5056 102.127L27.7756 101.124C24.758 106.325 23.2727 112.543 23.2727 119.736L25.2727 119.736ZM29.5073 102.124C32.2922 97.2848 36.2956 93.5725 41.5476 90.9809L40.6626 89.1874C35.0717 91.9462 30.7655 95.928 27.7739 101.127L29.5073 102.124ZM41.5492 90.9802C46.7787 88.3883 53.0824 87.0714 60.4943 87.0714L60.4943 85.0714C52.8494 85.0714 46.2269 86.4296 40.661 89.1882L41.5492 90.9802ZM60.4943 87.0714C67.9529 87.0714 74.3167 88.3999 79.6185 91.0164L80.5036 89.2229C74.868 86.4417 68.1872 85.0714 60.4943 85.0714L60.4943 87.0714ZM79.617 91.0156C84.888 93.6282 88.9282 97.4204 91.7629 102.404L93.5013 101.415C90.4647 96.0765 86.1243 92.0088 80.5052 89.2237L79.617 91.0156ZM91.7611 102.401C94.57 107.379 96 113.474 96 120.73L98 120.73C98 113.214 96.518 106.762 93.503 101.418L91.7611 102.401ZM90.1875 134.367L90.1875 121.299L88.1875 121.299L88.1875 134.367L90.1875 134.367ZM90.1875 121.299C90.1875 115.161 89.0039 109.99 86.5698 105.842L84.8449 106.854C87.051 110.614 88.1875 115.409 88.1875 121.299L90.1875 121.299ZM86.5698 105.842C84.1423 101.706 80.6803 98.6193 76.2124 96.5952L75.387 98.4169C79.4892 100.275 82.6323 103.084 84.8449 106.854L86.5698 105.842ZM76.2124 96.5952C71.7688 94.582 66.5196 93.5941 60.4943 93.5941L60.4943 95.5941C66.3061 95.5941 71.2606 96.5475 75.387 98.4169L76.2124 96.5952ZM60.4943 93.5941C54.517 93.5941 49.3152 94.57 44.9187 96.5595L45.7432 98.3816C49.8221 96.5358 54.7292 95.5941 60.4943 95.5941L60.4943 93.5941ZM44.9206 96.5586C40.4828 98.5556 37.0544 101.555 34.6709 105.552L36.3887 106.576C38.5507 102.951 41.6564 100.221 45.7413 98.3824L44.9206 96.5586ZM34.6733 105.548C32.2603 109.553 31.0852 114.49 31.0852 120.304L33.0852 120.304C33.0852 114.755 34.2065 110.199 36.3864 106.58L34.6733 105.548ZM31.0852 120.304L31.0852 134.367L33.0852 134.367L33.0852 120.304L31.0852 120.304ZM32.0852 135.367L89.1875 135.367L89.1875 133.367L32.0852 133.367L32.0852 135.367Z" fill="white"/>
<g filter="url(#filter0_d_613_33)">
<line x1="114.5" y1="6" x2="114.5" y2="581" stroke="white"/>
</g>
<g filter="url(#filter1_d_613_33)">
<line x1="1208" y1="528.5" x2="14" y2="528.5" stroke="white"/>
</g>
<defs>
<filter id="filter0_d_613_33" x="104" y="0" width="21" height="595" filterUnits="userSpaceOnUse" color-interpolation-filters="sRGB">
<feFlood flood-opacity="0" result="BackgroundImageFix"/>
<feColorMatrix in="SourceAlpha" type="matrix" values="0 0 0 0 0 0 0 0 0 0 0 0 0 0 0 0 0 0 127 0" result="hardAlpha"/>
<feOffset dy="4"/>
<feGaussianBlur stdDeviation="5"/>
<feComposite in2="hardAlpha" operator="out"/>
<feColorMatrix type="matrix" values="0 0 0 0 0 0 0 0 0 0 0 0 0 0 0 0 0 0 0.25 0"/>
<feBlend mode="normal" in2="BackgroundImageFix" result="effect1_dropShadow_613_33"/>
<feBlend mode="normal" in="SourceGraphic" in2="effect1_dropShadow_613_33" result="shape"/>
</filter>
<filter id="filter1_d_613_33" x="4" y="522" width="1214" height="21" filterUnits="userSpaceOnUse" color-interpolation-filters="sRGB">
<feFlood flood-opacity="0" result="BackgroundImageFix"/>
<feColorMatrix in="SourceAlpha" type="matrix" values="0 0 0 0 0 0 0 0 0 0 0 0 0 0 0 0 0 0 127 0" result="hardAlpha"/>
<feOffset dy="4"/>
<feGaussianBlur stdDeviation="5"/>
<feComposite in2="hardAlpha" operator="out"/>
<feColorMatrix type="matrix" values="0 0 0 0 0 0 0 0 0 0 0 0 0 0 0 0 0 0 0.25 0"/>
<feBlend mode="normal" in2="BackgroundImageFix" result="effect1_dropShadow_613_33"/>
<feBlend mode="normal" in="SourceGraphic" in2="effect1_dropShadow_613_33" result="shape"/>
</filter>
</defs>
</svg>
